G04*
G04 #@! TF.GenerationSoftware,Altium Limited,Altium Designer,22.11.1 (43)*
G04*
G04 Layer_Color=8388736*
%FSLAX44Y44*%
%MOMM*%
G71*
G04*
G04 #@! TF.SameCoordinates,7E3583A2-2878-4CA1-8AEC-5B8DB4771625*
G04*
G04*
G04 #@! TF.FilePolarity,Negative*
G04*
G01*
G75*
G04:AMPARAMS|DCode=17|XSize=1.7272mm|YSize=1.7272mm|CornerRadius=0mm|HoleSize=0mm|Usage=FLASHONLY|Rotation=0.000|XOffset=0mm|YOffset=0mm|HoleType=Round|Shape=Octagon|*
%AMOCTAGOND17*
4,1,8,0.8636,-0.4318,0.8636,0.4318,0.4318,0.8636,-0.4318,0.8636,-0.8636,0.4318,-0.8636,-0.4318,-0.4318,-0.8636,0.4318,-0.8636,0.8636,-0.4318,0.0*
%
%ADD17OCTAGOND17*%

%ADD18R,1.1032X0.9032*%
%ADD19R,1.9032X1.3032*%
%ADD20R,0.7366X1.6256*%
%ADD21R,1.7032X1.7032*%
%ADD22C,1.7032*%
%ADD23C,1.4732*%
%ADD24C,1.2192*%
D17*
X353060Y883920D02*
D03*
X476250Y779780D02*
D03*
D18*
X447040Y1051680D02*
D03*
Y1066680D02*
D03*
X472440Y1051800D02*
D03*
Y1066800D02*
D03*
D19*
X383540Y967270D02*
D03*
Y940270D02*
D03*
D20*
X459740Y969010D02*
D03*
X447040D02*
D03*
X434340D02*
D03*
X472440D02*
D03*
Y1024890D02*
D03*
X459740D02*
D03*
X447040D02*
D03*
X434340D02*
D03*
D21*
X341630Y1000760D02*
D03*
X610870Y916940D02*
D03*
D22*
X341630Y1026160D02*
D03*
X610870Y1018540D02*
D03*
Y993140D02*
D03*
Y967740D02*
D03*
Y942340D02*
D03*
D23*
X477520Y808990D02*
D03*
X439420Y923290D02*
D03*
X424180Y1069340D02*
D03*
X419100Y1038860D02*
D03*
D24*
X482600Y939800D02*
D03*
X459740Y1040130D02*
D03*
X411480Y938530D02*
D03*
M02*
