G04*
G04 #@! TF.GenerationSoftware,Altium Limited,Altium Designer,22.11.1 (43)*
G04*
G04 Layer_Physical_Order=2*
G04 Layer_Color=16711680*
%FSLAX44Y44*%
%MOMM*%
G71*
G04*
G04 #@! TF.SameCoordinates,7E3583A2-2878-4CA1-8AEC-5B8DB4771625*
G04*
G04*
G04 #@! TF.FilePolarity,Positive*
G04*
G01*
G75*
%ADD12C,0.2540*%
%ADD26R,1.5000X1.5000*%
%ADD27C,1.5000*%
%ADD28C,1.2700*%
%ADD29C,1.0160*%
D12*
X439420Y923290D02*
X477520Y885190D01*
Y808990D02*
Y885190D01*
X481330Y938530D02*
X482600Y939800D01*
X411480Y938530D02*
X481330D01*
X419100Y1061511D02*
X424180Y1066591D01*
Y1069340D01*
X419100Y1038860D02*
Y1061511D01*
X589280Y1040130D02*
X610870Y1018540D01*
X459740Y1040130D02*
X589280D01*
X582930Y939800D02*
X610870Y967740D01*
X482600Y939800D02*
X582930D01*
D26*
X341630Y1000760D02*
D03*
X610870Y916940D02*
D03*
D27*
X341630Y1026160D02*
D03*
X610870Y1018540D02*
D03*
Y993140D02*
D03*
Y967740D02*
D03*
Y942340D02*
D03*
D28*
X477520Y808990D02*
D03*
X439420Y923290D02*
D03*
X424180Y1069340D02*
D03*
X419100Y1038860D02*
D03*
D29*
X482600Y939800D02*
D03*
X459740Y1040130D02*
D03*
X411480Y938530D02*
D03*
M02*
