G04*
G04 #@! TF.GenerationSoftware,Altium Limited,Altium Designer,22.11.1 (43)*
G04*
G04 Layer_Color=65535*
%FSLAX44Y44*%
%MOMM*%
G71*
G04*
G04 #@! TF.SameCoordinates,7E3583A2-2878-4CA1-8AEC-5B8DB4771625*
G04*
G04*
G04 #@! TF.FilePolarity,Positive*
G04*
G01*
G75*
%ADD10C,0.1524*%
%ADD11C,0.2000*%
%ADD12C,0.2540*%
D10*
X427736Y993902D02*
G03*
X427736Y999998I0J3048D01*
G01*
X479044Y977138D02*
Y1016762D01*
X427736Y999998D02*
Y1016762D01*
Y993902D02*
Y999998D01*
Y977138D02*
Y993902D01*
D11*
X443540Y1057180D02*
Y1061180D01*
X450540Y1057180D02*
Y1061180D01*
X468940Y1057300D02*
Y1061300D01*
X475940Y1057300D02*
Y1061300D01*
X328930Y1038860D02*
X354330D01*
Y988060D02*
Y1038860D01*
X328930Y988060D02*
X354330D01*
X328930D02*
Y1038860D01*
X598170Y904240D02*
X623570D01*
X598170D02*
Y1031240D01*
X623570Y904240D02*
Y1031240D01*
X598170D02*
X623570D01*
X391040Y949770D02*
Y957770D01*
X376040Y949770D02*
Y957770D01*
D12*
X369573Y836933D02*
Y847089D01*
X374652Y852168D01*
X379730Y847089D01*
Y836933D01*
Y844550D01*
X369573D01*
X384808Y836933D02*
X389887D01*
X387348D01*
Y852168D01*
X384808Y849628D01*
X483870Y1007105D02*
Y994409D01*
X486409Y991870D01*
X491488D01*
X494027Y994409D01*
Y1007105D01*
X499105Y991870D02*
X504183D01*
X501644D01*
Y1007105D01*
X499105Y1004566D01*
X421640Y1076960D02*
Y1092195D01*
X429258D01*
X431797Y1089656D01*
Y1084577D01*
X429258Y1082038D01*
X421640D01*
X426718D02*
X431797Y1076960D01*
X447032D02*
X436875D01*
X447032Y1087117D01*
Y1089656D01*
X444493Y1092195D01*
X439414D01*
X436875Y1089656D01*
X473710Y1078230D02*
Y1093465D01*
X481328D01*
X483867Y1090926D01*
Y1085847D01*
X481328Y1083308D01*
X473710D01*
X478788D02*
X483867Y1078230D01*
X488945D02*
X494023D01*
X491484D01*
Y1093465D01*
X488945Y1090926D01*
X340738Y1062604D02*
X335659D01*
X338199D01*
Y1049908D01*
X335659Y1047369D01*
X333120D01*
X330581Y1049908D01*
X355973Y1047369D02*
X345816D01*
X355973Y1057526D01*
Y1060065D01*
X353434Y1062604D01*
X348355D01*
X345816Y1060065D01*
X609978Y1054984D02*
X604899D01*
X607439D01*
Y1042288D01*
X604899Y1039749D01*
X602360D01*
X599821Y1042288D01*
X615056Y1039749D02*
X620134D01*
X617595D01*
Y1054984D01*
X615056Y1052445D01*
X386331Y994660D02*
X383792Y997199D01*
X378713D01*
X376174Y994660D01*
Y984503D01*
X378713Y981964D01*
X383792D01*
X386331Y984503D01*
X391409Y981964D02*
X396487D01*
X393948D01*
Y997199D01*
X391409Y994660D01*
M02*
